


<svg
 xmlns="http://www.w3.org/2000/svg" 
 xmlns:xlink="http://www.w3.org/1999/xlink" 
 width="756" 
 height="730" 
 viewBox="0 0 754.705 728.857">
  <defs>
    <linearGradient
     id="linear-gradient" 
     x1="0.143" 
     y1="0.759" 
     x2="0.878" 
     y2="0.232" 
     gradientUnits="objectBoundingBox">
      <stop
       offset="0" 
       stop-color="#9000f0"/>
      <stop
       offset="1" 
       stop-color="#ff3d4f"/>
    </linearGradient>
  </defs>
  <path id="Shape" d="M558.378,573.547A107.35,107.35,0,0,0,568.8,554.509c11.667-27.729,16.011-61.824,7.907-90.556-7.95-28.18-25.549-50.755-33.831-78.741-14.077-47.561-15.662-97.756-19.024-147.244s-8.887-99.95-29.97-144.846C457.816,16.326,378.98-23.164,299.6,14.331,251.908,36.86,229.351,82.91,191.544,116.82c-42.713,38.306-100.71,57.065-141.114,97.8-43.532,43.894-61,111.9-44.018,171.342S74.167,493.908,134.32,508.17c45.4,10.763,92.888,3.042,139.52,4.566,25.791.841,52.344,5.253,75.842,16.316,23.776,11.2,36.36,34.194,56.247,50.747,25.959,21.612,54.539,45.121,89.514,37.186C522.8,610.776,542.48,596.754,558.378,573.547Z" transform="translate(0 558.359) rotate(-74)" fill="url(#linear-gradient)"/>
</svg>
